<?xml version="1.0" encoding="UTF-8"?>
<svg xmlns="http://www.w3.org/2000/svg" width="165" height="48" viewBox="0 0 165 48" fill="none">
  <g clip-path="url(#clip0_18001_15691)">
    <path d="M47.2241 15.0551C47.2241 15.9356 47.2526 16.7026 47.2241 17.4412C47.1957 17.8388 47.3948 17.8956 47.7078 17.8956C47.9638 17.8956 48.2198 18.0093 48.4474 18.1229C48.6181 18.2081 51.4345 22.0997 51.5767 22.3554C51.8328 22.8667 51.6336 23.2359 51.0931 23.2643C50.2966 23.2927 49.4716 23.2643 48.675 23.2643C48.2198 23.2643 47.7362 23.2643 47.2241 23.2643C47.2241 24.0029 47.2241 24.6562 47.2241 25.3096C47.2241 25.9913 47.2241 26.0197 47.9353 26.0765C48.2767 26.1049 48.4474 26.3038 48.6181 26.5026C49.5569 27.7241 50.3819 29.0307 51.4345 30.1669C51.4629 30.1954 51.4629 30.2522 51.4914 30.2806C51.9466 31.0475 51.7474 31.4736 50.8655 31.502C50.581 31.502 50.2966 31.502 50.0121 31.502C49.1302 31.502 48.2198 31.502 47.2241 31.502C47.2241 32.1269 47.2241 32.7519 47.2241 33.3484C47.2241 33.6325 47.1103 33.9733 47.2526 34.1722C47.3664 34.3142 47.7647 34.2574 47.9922 34.3426C48.2483 34.4562 48.5043 34.5983 48.6466 34.7971C49.2724 35.6493 49.8414 36.5014 50.5526 37.2684C50.9224 37.6661 51.1784 38.1206 51.4629 38.6035C51.8897 39.3136 51.6905 39.7113 50.894 39.7397C49.9552 39.7681 48.9879 39.7397 48.0491 39.7397C47.8216 39.7397 47.5655 39.7397 47.2241 39.7397C47.1957 40.0806 47.1672 40.4498 47.1672 40.8191C47.1672 41.9553 47.1672 43.0916 47.1672 44.2278C47.1672 44.7959 47.1672 44.7959 47.7931 45.364C48.3052 45.8469 48.6466 46.4151 48.5897 47.182C48.5328 47.7217 48.5897 48.3182 48.4474 48.8295C48.1345 49.909 47.1388 50.3066 46.2 50.5339C44.8345 50.8464 43.5828 50.1078 42.8716 48.858C42.3026 47.8069 42.6155 46.0458 43.5259 45.2504C44.0948 44.7675 44.0664 44.7675 44.0095 44.0006C43.981 43.5745 44.0095 43.1484 44.0095 42.7223C44.0095 41.7849 44.0095 40.8475 44.0095 39.7681C43.5828 39.7681 43.156 39.7681 42.7578 39.7681C29.0457 39.7681 15.3621 39.7681 1.65001 39.7681C1.42242 39.7681 1.16639 39.7397 0.938803 39.7681C0.540527 39.7965 0.0853548 39.7965 9.95025e-06 39.3704C-0.0568866 39.0864 0.113803 38.6887 0.284493 38.4046C1.16639 37.1832 2.07673 36.0185 2.98708 34.8255C3.18622 34.5983 3.35691 34.2574 3.78363 34.3426C4.3526 34.4562 4.52328 34.229 4.46639 33.6609C4.40949 32.9507 4.46639 32.269 4.46639 31.502C3.27156 31.502 2.13363 31.502 0.995699 31.502C0.768113 31.502 0.512079 31.502 0.312941 31.4452C0.0284582 31.3884 -0.113783 30.9339 0.0284582 30.6783C0.369837 30.1101 0.739665 29.542 1.13794 29.0023C1.73535 28.2069 2.33277 27.4116 2.95863 26.6162C3.21466 26.3038 3.49915 25.9629 4.01122 26.0765C4.38104 26.1617 4.49484 25.9629 4.46639 25.5936C4.55173 24.9119 4.55173 24.1449 4.55173 23.2927C3.30001 23.2927 2.07673 23.2927 0.853458 23.2927C0.0569065 23.2927 -0.142231 22.8951 0.284493 22.1849C0.65432 21.6168 1.08104 21.0771 1.47932 20.5374C1.96294 19.8841 2.38966 19.2023 2.90173 18.5774C3.12932 18.2933 3.44225 18.0661 3.75518 17.9241C3.98277 17.8104 4.40949 17.8956 4.52328 17.7536C4.66553 17.5548 4.55173 17.2139 4.55173 16.9298C4.55173 16.3617 4.55173 15.7936 4.55173 15.1403C3.92587 14.9983 3.27156 15.0835 2.6457 15.0835C2.01984 15.0551 1.42242 15.0551 0.796562 15.0835C0.398286 15.1119 0.142251 14.8846 0.0284582 14.6006C-0.0284383 14.4017 0.0853548 14.0609 0.227596 13.862C1.0526 12.7826 1.8776 11.7316 2.6457 10.5954C2.98708 10.0841 3.4138 9.48753 4.2388 9.65797C4.32415 9.68637 4.52328 9.43072 4.52328 9.3171C4.55173 8.52174 4.52328 7.72637 4.52328 6.81739C3.4138 6.81739 2.33277 6.81739 1.25173 6.81739C0.455182 6.81739 9.95025e-06 6.3629 9.95025e-06 5.53913C9.95025e-06 4.26087 9.95025e-06 2.98261 9.95025e-06 1.70435C9.95025e-06 0.624927 0.483631 0.113623 1.53622 0C1.79225 0 2.01984 0 2.27587 0C18.1216 0 33.9388 0 49.7845 0C49.8414 0 49.8698 0 49.9267 0C51.3491 0 51.7759 0.426087 51.8043 1.81797C51.8043 2.9542 51.8043 4.09043 51.8043 5.22667C51.8043 6.53333 51.5198 6.81739 50.1543 6.81739C49.244 6.81739 48.3621 6.81739 47.4517 6.81739C47.4233 6.81739 47.3664 6.8742 47.281 6.93101C47.281 7.58435 47.3379 8.29449 47.281 8.97623C47.2241 9.57275 47.4517 9.71478 47.9922 9.65797C48.5612 9.60116 48.7888 10.1125 49.0733 10.4533C49.8983 11.4759 50.6379 12.527 51.3776 13.6064C51.5767 13.9188 51.8328 14.3449 51.7474 14.6574C51.6336 15.1687 51.0647 15.0267 50.6664 15.0267C49.5285 15.0551 48.419 15.0551 47.2241 15.0551ZM7.70949 17.8672C7.88018 17.8956 7.99397 17.9241 8.13622 17.9241C19.8285 17.9241 31.5207 17.9241 43.2129 17.9241C43.4405 17.9241 43.725 18.0093 43.8957 17.8956C44.0948 17.782 44.3793 17.3275 44.3224 17.2707C43.7535 16.6174 44.2655 15.822 43.981 15.1119C31.8621 15.1119 19.7716 15.1119 7.68104 15.1119C7.70949 16.0493 7.70949 16.9298 7.70949 17.8672ZM7.70949 26.0481C7.79484 26.1049 7.82329 26.1333 7.85173 26.1333C19.6862 26.1333 31.5207 26.1333 43.3552 26.1333C43.5828 26.1333 43.8103 26.1049 44.0095 26.0197C44.1233 25.9629 44.294 25.7072 44.2655 25.6504C43.7535 24.9403 44.294 24.0881 44.0095 23.3496C31.8905 23.3496 19.8 23.3496 7.70949 23.3496C7.70949 24.3154 7.70949 25.1959 7.70949 26.0481ZM7.70949 9.62956C19.8285 9.62956 31.9474 9.62956 44.0664 9.62956C44.0664 8.69217 44.0664 7.81159 44.0664 6.8742C31.9474 6.8742 19.8285 6.8742 7.70949 6.8742C7.70949 7.81159 7.70949 8.69217 7.70949 9.62956ZM44.0664 31.5872C31.8621 31.5872 19.8 31.5872 7.68104 31.5872C7.68104 32.0985 7.68104 32.553 7.68104 33.0359C7.68104 33.4904 7.70949 33.9449 7.73794 34.3426C19.9138 34.3426 31.9759 34.3426 44.0664 34.3426C44.0664 33.4052 44.0664 32.5246 44.0664 31.5872Z" fill="#CB1419"></path>
    <path d="M143.038 31.0598C144.262 31.0598 145.343 31.0598 146.452 31.0598C146.452 36.5741 146.452 42.06 146.452 47.6591C145.912 47.7722 145.314 47.6874 144.717 47.7157C144.091 47.7439 143.493 47.7439 142.868 47.7157C142.668 47.7157 142.412 47.546 142.327 47.3763C141.644 46.2735 140.962 45.1989 140.279 44.1243C139.511 42.9366 138.771 41.749 138.003 40.533C137.149 39.2039 136.467 37.79 135.67 36.4044C135.585 36.263 135.471 36.1216 135.357 35.9802C135.329 35.9519 135.3 35.9237 135.243 35.8671C135.187 35.9237 135.101 35.9802 135.101 36.065C135.073 36.263 135.016 36.4892 135.101 36.6306C135.528 37.4507 135.357 38.3556 135.357 39.2039C135.386 42.0317 135.357 44.8313 135.357 47.7157C134.134 47.7157 132.968 47.7157 131.716 47.7157C131.716 42.2297 131.716 36.6872 131.716 31.0881C132.683 31.0881 133.679 31.1446 134.646 31.0598C135.386 31.0032 135.841 31.286 136.211 31.9081C137.121 33.4069 138.117 34.8774 139.027 36.4044C140.336 38.5535 141.644 40.7309 142.953 42.9084C143.038 38.9777 143.038 35.0753 143.038 31.0598Z" fill="#CB1419"></path>
    <path d="M80.2812 31.0312C81.4476 31.0312 82.5856 31.0312 83.7235 31.0312C84.0364 31.0312 84.1218 31.1444 84.264 31.4554C84.6623 32.2755 85.2312 33.039 85.7433 33.8025C86.995 35.6688 88.2183 37.5917 89.3562 39.5146C89.9821 40.6174 90.608 41.7203 91.2338 42.8231C91.2054 42.8231 91.2338 42.8231 91.2623 42.7948C91.2907 42.7666 91.3192 42.71 91.3192 42.6817C91.3192 38.8359 91.3192 34.9619 91.3192 31.0595C92.4571 31.0595 93.5666 31.0595 94.7045 31.0595C94.7045 36.5737 94.7045 42.0879 94.7045 47.6869C93.5666 47.6869 92.4571 47.6586 91.3192 47.6869C90.8924 47.6869 90.6364 47.5172 90.4373 47.1496C89.3562 45.1702 88.1045 43.3038 86.8812 41.4092C85.8002 39.7126 84.7476 37.9876 83.8942 36.1495C83.8657 36.0647 83.8942 35.9233 83.8373 35.895C83.7235 35.8385 83.5812 35.8102 83.4675 35.8102C83.4106 35.8102 83.3252 35.9799 83.3537 36.0364C83.9226 37.2807 83.5528 38.6097 83.6097 39.8822C83.6666 41.1547 83.6381 42.4272 83.6381 43.6997C83.6381 45.0005 83.6381 46.3013 83.6381 47.6586C82.4718 47.6586 81.3907 47.6586 80.2812 47.6586C80.2812 42.1727 80.2812 36.6868 80.2812 31.0312Z" fill="#CB1419"></path>
    <path d="M164.431 15.8502C160.818 15.8502 157.29 15.8502 153.678 15.8502C153.564 16.755 153.621 17.6032 154.218 18.2818C154.986 19.1583 155.868 19.8369 157.12 19.8369C158.457 19.8369 159.623 19.5542 160.278 18.197C160.448 17.8294 160.903 17.6598 161.216 17.9142C161.615 18.2535 162.013 18.0556 162.411 18.1122C163.037 18.2253 163.663 18.3101 164.289 18.3949C164.317 18.3949 164.346 18.5646 164.317 18.6494C163.976 20.1197 162.952 21.0245 161.728 21.7879C160.448 22.6645 159.083 23.032 157.603 22.9472C156.693 22.9189 155.783 22.9755 154.872 22.6927C153.365 22.2121 151.345 21.3073 150.463 19.5259C149.809 18.197 149.24 16.8681 149.325 15.3412C149.353 14.7191 149.296 14.1254 149.353 13.5033C149.496 11.8351 149.979 10.28 151.231 9.06412C151.715 8.58345 152.227 8.10277 152.796 7.67864C153.905 6.85867 155.185 6.49109 156.579 6.54764C157.091 6.57591 157.632 6.51936 158.144 6.57591C158.571 6.60419 159.026 6.71729 159.452 6.85867C160.135 7.11314 160.932 7.31107 161.472 7.76347C163.208 9.2055 164.431 10.9303 164.431 13.3054C164.431 14.1536 164.431 14.9736 164.431 15.8502ZM157.063 13.0509C158.059 13.0509 159.054 13.0226 160.05 13.0509C160.477 13.0792 160.534 12.853 160.477 12.542C160.192 10.9303 158.684 9.68618 157.063 9.62963C156.437 9.60135 155.84 9.771 155.413 10.082C154.702 10.591 154.076 11.213 153.706 12.033C153.621 12.1744 153.677 12.4006 153.649 12.5702C153.621 12.9095 153.706 13.0792 154.104 13.0509C155.071 13.0509 156.067 13.0509 157.063 13.0509Z" fill="black"></path>
    <path d="M95.3019 22.6369C93.9363 22.6369 92.6846 22.6369 91.3191 22.6369C91.3191 21.9865 91.3191 21.3362 91.3191 20.6858C90.6079 21.2514 89.8967 21.6755 89.3562 22.2693C88.9863 22.6652 88.5312 22.6934 88.1613 22.8066C86.1984 23.4852 83.2113 22.6652 81.9027 21.0534C81.5329 20.601 81.2484 20.0072 81.1062 19.4134C80.4803 16.9817 81.8743 14.6348 84.3493 13.8996C85.3734 13.5886 86.426 13.2775 87.507 13.3341C88.332 13.3623 89.1001 13.023 89.9536 12.9948C90.9493 12.9665 91.3475 11.8637 90.9208 10.7892C90.6079 9.99749 89.8398 9.77128 89.157 9.65818C87.9622 9.46025 86.8527 9.65818 86.0846 10.7609C85.9139 10.9872 85.6863 11.1568 85.4872 11.3547C85.3165 11.5527 85.2027 11.4961 84.9751 11.4113C84.6053 11.2699 84.1501 11.383 83.7234 11.3265C83.0975 11.2699 82.4717 11.1568 81.8458 11.0437C81.7605 11.0154 81.6182 10.7044 81.6751 10.5913C81.8743 10.054 82.045 9.48852 82.4148 9.06438C83.382 7.90506 84.6053 7.16988 86.1415 6.77402C87.507 6.43471 88.8156 6.57609 90.1527 6.57609C90.8639 6.57609 91.6605 6.85885 92.3148 7.14161C93.7088 7.79196 94.6475 8.97955 95.3019 10.3651C95.4441 10.6478 95.3303 11.0154 95.3303 11.3547C95.3019 15.0872 95.3019 18.7914 95.3019 22.6369ZM91.3191 16.3879C91.3191 16.1334 91.3191 16.0203 91.3191 15.9355C91.3191 15.3417 91.0915 15.1437 90.5794 15.3699C89.9536 15.6527 89.2993 15.7375 88.6734 15.8789C88.0191 16.0203 87.3079 16.0203 86.682 16.19C86.2838 16.3031 85.857 16.6141 85.601 16.9534C85.345 17.2644 85.1174 17.7734 85.2027 18.0844C85.345 18.5934 85.345 19.2155 85.8855 19.5548C87.1088 20.3465 89.1286 20.1203 90.2096 19.1307C91.0915 18.3389 91.0915 17.2362 91.3191 16.3879Z" fill="black"></path>
    <path d="M106.966 6.86133C108.417 6.86133 109.782 6.86133 111.233 6.86133C111.233 8.84035 111.233 10.8194 111.233 12.7701C111.233 14.0424 111.148 15.3146 111.262 16.5868C111.375 17.6612 111.745 18.7355 112.94 19.103C114.675 19.6685 116.951 19.0182 117.264 16.8695C117.378 16.0214 117.492 15.145 117.492 14.2968C117.492 11.8372 117.492 9.40579 117.492 6.8896C118.886 6.8896 120.28 6.8896 121.73 6.8896C121.73 12.0916 121.73 17.3219 121.73 22.6087C120.365 22.6087 118.971 22.6087 117.52 22.6087C117.52 21.704 117.52 20.8276 117.52 19.6119C117.264 20.0643 117.179 20.2339 117.065 20.4318C116.923 20.658 116.809 20.9124 116.638 21.1103C115.756 22.2412 114.505 22.7218 113.168 22.948C112.001 23.1459 110.92 22.7501 109.839 22.3826C109.782 22.3826 109.725 22.4108 109.697 22.3826C108.673 21.3648 107.506 20.4883 107.222 18.8768C107.051 18.0004 106.994 17.1523 106.994 16.3041C106.966 13.2225 106.966 10.1126 106.966 6.86133Z" fill="black"></path>
    <path d="M114.931 47.7154C114.931 42.0879 114.931 36.6302 114.931 31.0876C115.272 31.0593 115.642 31.031 116.012 31.031C118.06 31.031 120.08 30.9744 122.128 31.031C125.4 31.1441 127.505 32.7843 128.813 35.6121C129.013 36.008 128.7 36.5453 129.183 36.8847C129.098 37.9027 129.638 38.8359 129.468 39.8822C129.098 42.0879 128.728 44.2937 126.907 45.8773C125.599 47.0084 124.034 47.6871 122.27 47.7154C119.852 47.7437 117.434 47.7154 114.931 47.7154ZM118.629 40.0519C118.629 40.3347 118.657 40.6174 118.629 40.9002C118.515 41.9465 118.885 43.0211 118.373 44.0392C118.202 44.3502 118.572 44.8875 118.885 44.8592C120.222 44.831 121.588 45.0572 122.896 44.6047C124.831 43.9543 125.769 42.3142 125.769 40.674C125.769 40.1933 126.054 39.6843 125.912 39.2884C125.684 38.7228 125.826 38.1855 125.769 37.6482C125.656 36.4888 125.172 35.3859 124.233 34.7921C123.38 34.2265 122.356 33.7457 121.218 33.8306C120.649 33.8871 120.08 33.8306 119.511 33.8306C118.487 33.8306 118.458 33.9437 118.344 34.9052C118.231 35.7252 118.657 36.4039 118.657 37.1957C118.629 38.1855 118.629 39.1187 118.629 40.0519Z" fill="#CB1419"></path>
    <path d="M149.069 38.977C148.898 37.789 149.325 36.403 149.923 35.017C150.833 32.9805 152.341 31.6228 154.503 31.0571C156.722 30.4631 158.998 30.548 161.302 31.8774C162.582 32.6411 164.118 34.819 164.46 36.2899C164.687 37.3364 165.142 38.383 165 39.4295C164.801 40.9852 164.744 42.5975 163.891 44.04C162.867 45.7937 161.444 47.0099 159.538 47.6888C158.144 48.1696 155.698 48.1131 154.275 47.6322C151.63 46.7554 150.179 44.8037 149.354 42.2863C149.012 41.3246 149.098 40.3346 149.069 38.977ZM161.302 39.7407C161.302 38.8638 161.33 38.185 161.302 37.5344C161.302 37.3364 161.103 37.1384 161.046 36.9404C160.534 35.0736 159.424 33.9139 157.348 33.8573C157.092 33.8573 156.921 33.4331 156.551 33.8291C156.409 33.9988 155.897 33.8008 155.584 33.8856C155.299 33.9422 154.986 34.0836 154.759 34.2816C154.133 34.8756 153.365 35.413 153.08 36.2616C152.767 37.0819 152.455 37.9304 152.483 38.8355C152.511 39.6841 152.54 40.5326 152.739 41.4095C153.109 42.9369 153.962 43.9551 155.271 44.7188C155.356 44.7754 155.413 44.8885 155.47 44.8885C156.039 45.0017 156.665 44.6623 157.177 45.1714C157.433 44.7754 157.888 45.0583 158.201 44.8885C159.083 44.4077 160.022 44.0683 160.562 43.0217C161.131 41.862 161.387 40.7589 161.302 39.7407Z" fill="#CB1419"></path>
    <path d="M65.1468 22.5778C65.1468 22.0407 65.2037 21.4754 65.1468 20.9383C65.0615 20.0902 65.4029 19.5248 65.9434 18.8464C67.3373 17.1219 68.8167 15.4824 70.1253 13.6731C70.8649 12.6272 71.8606 11.7509 72.7141 10.7614C72.7994 10.6766 72.8563 10.507 72.8279 10.394C72.7994 10.3091 72.6287 10.2243 72.5149 10.2243C70.9503 10.2243 69.3856 10.2243 67.821 10.2243C66.9675 10.2243 66.1141 10.2243 65.2322 10.2243C65.2322 9.12185 65.2322 8.04763 65.2322 6.97342C66.3417 6.74726 73.2261 6.69073 78.2615 6.86034C78.2615 7.36918 78.1761 7.87802 78.2899 8.35859C78.4891 9.17839 78.0054 9.74377 77.6641 10.3657C77.3796 10.8745 76.9529 11.2986 76.583 11.7509C75.1606 13.447 73.7098 15.1431 72.458 16.9523C71.9175 17.7156 71.2348 18.3941 70.5235 19.2421C72.8279 19.2421 74.9899 19.2421 77.152 19.2421C77.4934 19.2421 77.8348 19.1856 78.1477 19.2704C78.233 19.2987 78.6029 19.4117 78.4322 19.864C78.1761 20.4859 78.0908 21.2209 78.4891 21.8429C78.7735 22.2952 78.3468 22.4365 78.1477 22.6061C78.0054 22.7192 77.6925 22.6344 77.4649 22.6344C73.4822 22.6344 69.4994 22.6344 65.5167 22.6344C65.4029 22.6627 65.3175 22.6344 65.1468 22.5778Z" fill="black"></path>
    <path d="M104.803 31.031C105.457 31.031 106.14 31.0593 106.794 31.031C107.164 31.0027 107.221 31.1724 107.306 31.4835C107.733 32.756 108.245 34.0285 108.672 35.3011C108.985 36.1777 109.156 37.0826 109.554 37.9027C109.952 38.7228 110.18 39.6277 110.55 40.4478C111.175 41.89 111.631 43.3888 112.057 44.8875C112.285 45.5945 112.655 46.2449 112.882 46.9519C113.053 47.5174 112.939 47.7154 112.37 47.7154C111.46 47.7154 110.578 47.7154 109.668 47.7154C109.269 47.7154 109.07 47.4892 108.956 47.1781C108.644 46.3015 108.331 45.4531 108.131 44.5765C108.046 44.1806 108.018 44.0392 107.563 44.0392C105.856 44.0675 104.149 44.0675 102.442 44.0392C101.901 44.0392 101.645 44.2088 101.503 44.8027C101.332 45.7076 100.963 46.556 100.678 47.4043C100.621 47.5174 100.45 47.6871 100.337 47.6871C99.1987 47.7154 98.0608 47.7154 96.9229 47.6871C96.553 47.6871 96.8375 47.4892 96.8944 47.3478C98.0039 44.0957 99.1134 40.8154 100.223 37.5634C100.564 36.5736 100.849 35.5556 101.304 34.6224C101.759 33.6609 101.958 32.6429 102.385 31.6814C102.556 31.2572 102.527 30.9462 103.096 31.0027C103.665 31.0876 104.234 31.031 104.803 31.031ZM104.775 33.8589C104.405 35.3011 104.149 36.4888 103.836 37.6765C103.523 38.8359 103.153 39.9953 102.755 41.2113C104.063 41.2113 105.372 41.2113 106.681 41.2113C107.05 41.2113 107.022 40.9568 106.908 40.7306C106.595 40.1367 106.51 39.4863 106.339 38.8359C106.197 38.2138 105.913 37.6199 105.77 36.9695C105.6 36.0081 105.201 35.0749 104.775 33.8589Z" fill="#CB1419"></path>
    <path d="M138.486 22.6628C134.048 22.6628 129.667 22.6628 125.172 22.6628C125.172 22.1822 125.229 21.73 125.172 21.2777C125.001 20.147 125.599 19.3838 126.282 18.6206C127.419 17.3203 128.529 16.02 129.496 14.5783C129.951 13.9565 130.577 13.5042 131.032 12.8258C131.601 11.9495 132.398 11.2145 133.138 10.3383C131.886 10.1404 130.634 10.2817 129.411 10.2535C128.131 10.2252 126.85 10.2535 125.513 10.2535C125.513 9.15103 125.513 8.04861 125.513 6.88965C129.724 6.88965 133.906 6.88965 138.258 6.88965C138.258 7.73767 138.258 8.61395 138.258 9.49024C138.258 9.65984 138.201 9.85771 138.088 9.97078C137.234 11.0449 136.295 12.0343 135.499 13.1367C134.361 14.7197 132.938 16.0482 131.943 17.7443C131.715 18.14 131.288 18.4227 130.947 18.7619C130.862 18.8467 130.805 19.0446 130.862 19.1294C130.89 19.2142 131.089 19.2707 131.203 19.2707C132.768 19.2707 134.332 19.2707 135.897 19.2707C136.75 19.2707 137.575 19.2707 138.486 19.2707C138.486 20.4014 138.486 21.4473 138.486 22.6628Z" fill="black"></path>
    <path d="M77.3505 35.8376C76.4686 35.8376 75.6436 35.8376 74.7902 35.8376C74.3635 35.8376 74.079 35.6679 73.9936 35.2436C73.766 34.2253 72.8841 33.8293 72.0876 33.603C71.1773 33.3484 70.1531 33.5182 69.2712 33.9142C68.5316 34.2536 68.1048 35.2153 68.3324 36.0356C68.4747 36.6296 68.9583 37.0256 69.5557 37.2236C70.8928 37.7045 72.2583 37.9873 73.6238 38.355C74.5341 38.5813 75.3876 38.9773 76.1273 39.5148C77.066 40.2502 77.6635 41.2968 77.6919 42.5131C77.7204 43.1919 77.6919 43.8425 77.4928 44.5214C77.2652 45.2851 76.8954 45.8225 76.3548 46.3316C75.9566 46.7277 75.0747 47.1237 74.5341 47.4065C72.8273 48.3399 70.9781 47.9157 69.2143 47.9157C68.3893 47.9157 67.479 47.5197 66.7393 47.0671C66.0281 46.6428 65.4876 45.9356 64.9186 45.2851C64.4919 44.8042 64.6342 44.1253 64.3497 43.5313C64.0083 42.8808 64.3212 42.5696 65.1178 42.5696C65.8859 42.5696 66.6255 42.5413 67.3936 42.5696C67.5074 42.5696 67.6781 42.7393 67.7066 42.8808C68.304 44.5779 69.0152 45.1154 70.8074 45.1154C71.4333 45.1154 72.0876 45.2002 72.685 44.8325C72.8273 44.7476 73.0548 44.7476 73.1686 44.6345C73.7945 44.0688 74.5057 43.4465 74.2497 42.5696C74.0221 41.8059 73.2824 41.3816 72.5143 41.1553C70.9212 40.7028 69.2712 40.335 67.7066 39.741C66.9669 39.4582 66.3695 39.0339 65.8005 38.5248C65.26 38.0156 64.8333 37.4499 64.8902 36.6296C64.2074 35.7527 64.8617 34.9042 65.0609 34.0839C65.2885 33.1504 65.9428 32.3584 66.7678 31.8493C67.9057 31.1421 69.129 30.5764 70.5514 30.6613C70.779 30.6896 71.035 30.6896 71.2626 30.6613C72.8273 30.4633 74.1643 31.0856 75.4729 31.7927C75.7574 31.9341 76.0419 32.1604 76.2126 32.415C76.81 33.4899 77.5781 34.4516 77.3505 35.8376Z" fill="#CB1419"></path>
    <path d="M99.0566 1.16699C100.479 1.16699 101.816 1.16699 103.239 1.16699C103.239 8.30382 103.239 15.4123 103.239 22.6058C102.613 22.7191 101.901 22.6341 101.219 22.6625C100.507 22.6908 99.8247 22.6625 99.0566 22.6625C99.0566 15.5256 99.0566 8.41711 99.0566 1.16699Z" fill="black"></path>
    <path d="M142.014 6.86133C143.408 6.86133 144.773 6.86133 146.167 6.86133C146.167 12.119 146.167 17.3767 146.167 22.6345C144.773 22.6345 143.408 22.6345 142.014 22.6345C142.014 17.3767 142.014 12.1473 142.014 6.86133Z" fill="black"></path>
    <path d="M65.7725 0.283201C67.1095 0.283201 68.1906 0.255483 69.2716 0.283201C69.4707 0.283201 69.6983 0.421792 69.869 0.560382C70.438 1.08702 71.0069 1.58595 71.4052 2.2789C71.5475 2.52836 71.775 2.63924 72.0311 2.25118C72.4294 1.61367 72.913 1.03159 73.3966 0.44951C73.4819 0.338637 73.7095 0.255483 73.8802 0.255483C74.8759 0.227765 75.8716 0.255483 76.8673 0.255483C76.9526 0.255483 77.0949 0.310919 77.0949 0.366355C77.1233 0.477228 77.1233 0.671254 77.0664 0.72669C75.8716 1.91857 74.6768 3.08273 73.4535 4.24688C73.3113 4.38547 73.0268 4.38547 72.8276 4.38547C72.1164 4.41319 71.4052 4.38547 70.694 4.38547C70.125 4.38547 70.125 4.35776 69.5561 3.77568C68.7311 2.94413 67.8776 2.14031 67.0526 1.33649C66.6544 1.05931 66.313 0.782126 65.7725 0.283201Z" fill="black"></path>
    <path d="M144.034 4.44533C143.38 4.83389 142.896 4.14003 142.441 3.83474C142.043 3.58495 141.929 2.86334 141.701 2.36376C142.27 2.00295 141.73 1.25359 142.355 0.809518C142.839 0.476466 143.266 0.337695 143.835 0.226678C144.973 0.0323974 146.31 0.615238 146.509 1.58664C146.879 3.39067 145.712 4.47309 144.034 4.44533Z" fill="black"></path>
  </g>
  <defs>
    <clipPath id="clip0_18001_15691">
      <rect width="165" height="48" fill="white"></rect>
    </clipPath>
  </defs>
</svg>
